<svg width="18" height="18" viewBox="0 0 18 18" fill="none" xmlns="http://www.w3.org/2000/svg">
<path fill-rule="evenodd" clip-rule="evenodd" d="M14.9998 13.4426C14.9998 14.2863 14.3066 14.9761 13.4598 14.9761H4.54046C3.69344 14.9761 3 14.2863 3 13.4426V4.55837C3 3.71423 3.69366 3.02393 4.54046 3.02393H13.46C14.307 3.02393 15 3.71423 15 4.55837L14.9998 13.4426ZM9.00418 11.3056C10.3356 11.3056 11.4155 10.2638 11.4155 8.9792C11.4155 7.6933 10.3354 6.65235 9.00418 6.65235C7.67321 6.65235 6.59375 7.6933 6.59375 8.9792C6.59375 10.2636 7.67321 11.3056 9.00418 11.3056ZM11.7356 6.71986H13.0922C13.2355 6.71941 13.3728 6.66248 13.474 6.56153C13.5753 6.46057 13.6323 6.32379 13.6327 6.18107V4.89323C13.6323 4.75047 13.5753 4.61364 13.4741 4.51262C13.3728 4.41159 13.2355 4.35457 13.0922 4.354H11.7356C11.5923 4.35446 11.4549 4.41144 11.3537 4.51249C11.2524 4.61354 11.1954 4.75044 11.1951 4.89323V6.18107C11.1954 6.32382 11.2524 6.46067 11.3537 6.56165C11.455 6.66263 11.5923 6.71952 11.7356 6.71986ZM9.00698 12.7106C11.0678 12.7106 12.7391 11.0976 12.7391 9.10959C12.7391 8.75232 12.6849 8.40856 12.5847 8.08301H13.6411V13.1341C13.6408 13.26 13.5904 13.3806 13.5009 13.4696C13.4113 13.5585 13.2901 13.6084 13.1636 13.6083H4.80513C4.54242 13.6083 4.32812 13.3957 4.32812 13.1341V8.08301H5.43039C5.33034 8.40856 5.27569 8.75232 5.27569 9.10959C5.27569 11.0978 6.94661 12.7106 9.00698 12.7106Z" fill="black"/>
</svg>
