<?xml version="1.0" encoding="UTF-8"?>
<svg version="1.1" xmlns="http://www.w3.org/2000/svg" width="48" height="48">
<path d="M0 0 C-0.0928125 1.1446875 -0.0928125 1.1446875 -0.1875 2.3125 C0.03333514 5.47780368 0.69698534 5.98486217 3 8 C3 8.66 3 9.32 3 10 C3.804375 10.144375 4.60875 10.28875 5.4375 10.4375 C8 11 8 11 9 12 C9.4322102 16.48833666 9.52798355 20.6507087 7.875 24.875 C5.53841169 27.52313342 3.00538523 29.15996823 0 31 C-0.721875 31.556875 -1.44375 32.11375 -2.1875 32.6875 C-6.07001942 35.49897958 -10.38898138 35.49090692 -15 35 C-19.27554581 33.32331537 -22.55059025 31.00717773 -26 28 C-26.928125 27.319375 -27.85625 26.63875 -28.8125 25.9375 C-32.09302152 21.53222825 -31.41871018 17.31296695 -31 12 C-30.23300781 11.75121094 -29.46601563 11.50242187 -28.67578125 11.24609375 C-25.66977533 9.84621654 -24.95131071 8.79208602 -23.1875 6.0625 C-18.79641617 0.6836668 -13.07832605 0.21707055 -6.546875 -0.72265625 C-3 -1 -3 -1 0 0 Z M-21.16015625 7.58203125 C-23.81585402 11.07221579 -23.4243727 14.26410206 -23.125 18.4375 C-23.10953125 19.18837891 -23.0940625 19.93925781 -23.078125 20.71289062 C-22.83604158 24.76066784 -22.32256588 27.22592666 -19.2421875 29.99609375 C-16.09903317 31.93879034 -14.62186178 32.68304266 -11 32.625 C-10.195625 32.63789062 -9.39125 32.65078125 -8.5625 32.6640625 C-4.89192175 31.71284557 -2.30115615 29.96421656 0 27 C0.73060582 24.05342445 1.05965481 21.95142421 1.125 19 C1.17914063 18.30132812 1.23328125 17.60265625 1.2890625 16.8828125 C1.45710932 13.17177865 1.18590289 11.26877526 -0.9453125 8.1875 C-1.62335937 7.465625 -2.30140625 6.74375 -3 6 C-3.33 5.01 -3.66 4.02 -4 3 C-11.01157884 2.57930527 -15.35854331 3.33311038 -21.16015625 7.58203125 Z M-28 13 C-27.85831863 14.43791516 -27.71148957 15.8753237 -27.5625 17.3125 C-27.48128906 18.11300781 -27.40007813 18.91351563 -27.31640625 19.73828125 C-27.04734307 22.16087179 -27.04734307 22.16087179 -26 25 C-25.34 24.67 -24.68 24.34 -24 24 C-24.14107747 22.54119891 -24.28802415 21.08296449 -24.4375 19.625 C-24.55931641 18.40683594 -24.55931641 18.40683594 -24.68359375 17.1640625 C-24.89090114 14.95727195 -24.89090114 14.95727195 -26 13 C-26.66 13 -27.32 13 -28 13 Z M4 13 C3.61102839 14.62171239 3.23921702 16.24754925 2.875 17.875 C2.66617188 18.77992187 2.45734375 19.68484375 2.2421875 20.6171875 C2.16226563 21.40351563 2.08234375 22.18984375 2 23 C2.66 23.66 3.32 24.32 4 25 C4.66 24.01 5.32 23.02 6 22 C5.34 22 4.68 22 4 22 C4.25561323 19.6568787 4.59270772 17.32156597 5 15 C5.66 14.67 6.32 14.34 7 14 C6.01 13.67 5.02 13.34 4 13 Z " fill="#000000" transform="translate(35,7)"/>
<path d="M0 0 C0.99 0 1.98 0 3 0 C3.33 1.65 3.66 3.3 4 5 C3.01 5.66 2.02 6.32 1 7 C-0.0625 5.1875 -0.0625 5.1875 -1 3 C-0.67 2.01 -0.34 1.02 0 0 Z " fill="#000000" transform="translate(27,22)"/>
<path d="M0 0 C0.99 0 1.98 0 3 0 C3 1.98 3 3.96 3 6 C2.01 6 1.02 6 0 6 C-1.125 2.25 -1.125 2.25 0 0 Z " fill="#000000" transform="translate(18,22)"/>
</svg>
