<?xml version="1.0" encoding="UTF-8" standalone="no"?>
<svg
   width="1920.001"
   height="30"
   viewBox="0 0 1920.001 30"
   version="1.1"
   id="svg1"
   sodipodi:docname="radian414.svg"
   inkscape:version="1.3.2 (091e20e, 2023-11-25, custom)"
   xmlns:inkscape="http://www.inkscape.org/namespaces/inkscape"
   xmlns:sodipodi="http://sodipodi.sourceforge.net/DTD/sodipodi-0.dtd"
   xmlns="http://www.w3.org/2000/svg"
   xmlns:svg="http://www.w3.org/2000/svg">
  <defs
     id="defs1" />
  <sodipodi:namedview
     id="namedview1"
     pagecolor="#000000"
     bordercolor="#000000"
     borderopacity="0.25"
     inkscape:showpageshadow="2"
     inkscape:pageopacity="0.0"
     inkscape:pagecheckerboard="0"
     inkscape:deskcolor="#d1d1d1"
     inkscape:zoom="0.73072879"
     inkscape:cx="960.00049"
     inkscape:cy="14.369216"
     inkscape:window-width="1920"
     inkscape:window-height="1017"
     inkscape:window-x="-8"
     inkscape:window-y="-8"
     inkscape:window-maximized="1"
     inkscape:current-layer="svg1" />
  <path
     id="Subtraction_FFFFFF"
     data-name="Subtraction #FFFFFF"
     d="M7905,20311h0c-145.894-8.758-300.289-15.5-458.9-20.045-40.221-1.152-81.218-2.176-121.854-3.041-40.784-.871-82.6-1.615-124.273-2.207-41.918-.592-84.475-1.045-126.49-1.342-42.454-.3-85.684-.451-128.489-.451s-86.035.15-128.483.451c-42,.3-84.562.75-126.49,1.342-41.677.592-83.49,1.336-124.278,2.207-40.641.865-81.637,1.889-121.849,3.041-158.59,4.545-312.986,11.287-458.9,20.045v-30H7905v30Z"
     transform="translate(-5985 -20281)"
     fill="#fff"
     style="fill:none" />
</svg>
