<?xml version="1.0" encoding="UTF-8"?>
<svg version="1.1" xmlns="http://www.w3.org/2000/svg" width="48" height="48">
<path d="M0 0 C0.68707555 2.49064888 1 4.37886292 1 7 C2.27547072 8.56377458 2.27547072 8.56377458 3.9375 10 C7.17201152 12.93629415 7.91969876 14.91593332 8.25 19.375 C7.90513657 24.37551972 6.68059403 26.51038256 2.9375 29.828125 C-2.83272422 34.49745117 -6.41398229 36.33120472 -13.9765625 36.21875 C-19.06306904 35.6688574 -22.7946669 32.82174331 -26 29 C-26 28.34 -26 27.68 -26 27 C-26.78375 26.9175 -27.5675 26.835 -28.375 26.75 C-31 26 -31 26 -32.3125 24.3125 C-33.54334554 20.17238318 -33.51198967 17.15197676 -31.75 13.1875 C-29.74832869 10.68541087 -28.98396941 10.67379954 -26 10 C-25.71125 9.401875 -25.4225 8.80375 -25.125 8.1875 C-23.17492162 4.39568092 -19.90229073 2.63648073 -15.921875 1.3046875 C-10.55499748 -0.02764923 -5.51269544 -0.1750062 0 0 Z M-20.7265625 8.2890625 C-24.00565385 11.87496942 -25 15.22517383 -25 20 C-23.50624711 24.63849581 -21.80130239 27.91144181 -18 31 C-13.09357516 32.63547495 -9.31822976 32.57522753 -4.5625 30.5 C-3.716875 30.005 -2.87125 29.51 -2 29 C-2.33 28.360625 -2.66 27.72125 -3 27.0625 C-4.31141145 23.04630245 -4.53422519 19.19523901 -4 15 C-3.34 14.01 -2.68 13.02 -2 12 C-2.30840599 9.84725052 -2.30840599 9.84725052 -3 8 C-3.66 8 -4.32 8 -5 8 C-5 6.68 -5 5.36 -5 4 C-10.52041234 4 -16.19476436 4.9055933 -20.7265625 8.2890625 Z M0 14 C-1.52150158 17.04300316 -1.23899393 19.654085 -1 23 C0.485 23.99 0.485 23.99 2 25 C4.41121859 23.04366025 4.41121859 23.04366025 4.125 19.375 C4.08375 18.26125 4.0425 17.1475 4 16 C2.68 15.34 1.36 14.68 0 14 Z M-29 16 C-28 18 -28 18 -28 18 Z M-29 19 C-28 22 -28 22 -28 22 Z " fill="#000000" transform="translate(35,6)"/>
<path d="M0 0 C0.99 0 1.98 0 3 0 C3 1.65 3 3.3 3 5 C1.68 5 0.36 5 -1 5 C-0.67 3.35 -0.34 1.7 0 0 Z " fill="#000000" transform="translate(21,20)"/>
<path d="M0 0 C0.99 0 1.98 0 3 0 C3 1.65 3 3.3 3 5 C1.68 5 0.36 5 -1 5 C-0.67 3.35 -0.34 1.7 0 0 Z " fill="#000000" transform="translate(14,20)"/>
</svg>
