<svg width="18" height="18" viewBox="0 0 18 18" fill="none" xmlns="http://www.w3.org/2000/svg">
<path d="M13.042 8.45221C12.9773 8.42124 12.9117 8.39144 12.8452 8.3629C12.7295 6.22955 11.5637 5.0082 9.6064 4.9957C9.59753 4.99565 9.58871 4.99565 9.57984 4.99565C8.40909 4.99565 7.4354 5.49538 6.83609 6.40474L7.91258 7.14319C8.36028 6.46393 9.06291 6.31912 9.58036 6.31912C9.58634 6.31912 9.59234 6.31913 9.59825 6.31918C10.2427 6.32329 10.7291 6.51067 11.0438 6.87609C11.2729 7.14213 11.4261 7.50977 11.502 7.97373C10.9305 7.87662 10.3126 7.84676 9.65195 7.88463C7.79099 7.99183 6.59462 9.07718 6.67497 10.5853C6.71574 11.3503 7.09685 12.0084 7.74805 12.4384C8.29863 12.8018 9.00773 12.9795 9.74471 12.9393C10.718 12.8859 11.4815 12.5146 12.0141 11.8356C12.4187 11.32 12.6745 10.6518 12.7875 9.80984C13.2513 10.0898 13.5951 10.4581 13.7849 10.9009C14.1077 11.6537 14.1266 12.8906 13.1173 13.8991C12.233 14.7825 11.17 15.1647 9.56355 15.1765C7.78158 15.1633 6.43389 14.5918 5.55766 13.4779C4.73715 12.4348 4.3131 10.9283 4.29728 9C4.3131 7.0717 4.73715 5.56513 5.55766 4.52209C6.43389 3.4082 7.78155 2.83672 9.56353 2.82348C11.3584 2.83682 12.7296 3.41105 13.6394 4.53031C14.0855 5.07919 14.4218 5.76944 14.6435 6.57424L15.905 6.23767C15.6363 5.24705 15.2134 4.39341 14.6379 3.68547C13.4716 2.25052 11.7658 1.51525 9.56793 1.5H9.55913C7.36575 1.51519 5.67907 2.25327 4.54596 3.6937C3.53765 4.9755 3.01753 6.75904 3.00005 8.99473L3 9L3.00005 9.00527C3.01753 11.2409 3.53765 13.0245 4.54596 14.3063C5.67907 15.7467 7.36575 16.4848 9.55913 16.5H9.56793C11.518 16.4865 12.8925 15.9759 14.0248 14.8446C15.5063 13.3645 15.4617 11.5093 14.9734 10.3704C14.6231 9.55367 13.9552 8.89033 13.042 8.45221ZM9.67504 11.6177C8.85941 11.6637 8.01206 11.2976 7.97028 10.5134C7.93931 9.93203 8.38405 9.28328 9.72509 9.206C9.87867 9.19714 10.0294 9.19281 10.1774 9.19281C10.6645 9.19281 11.1202 9.24013 11.5345 9.3307C11.38 11.2605 10.4736 11.5739 9.67504 11.6177Z" fill="black"/>
</svg>
