<svg width="18" height="18" viewBox="0 0 18 18" fill="none" xmlns="http://www.w3.org/2000/svg">
<path d="M7.88347 7.72503C5.77675 7.62128 4.31235 8.38805 3.49027 10.0254C2.25717 12.4813 3.27628 16.5 7.39004 16.5C11.5038 16.5 11.6228 12.442 11.6228 12.0169C11.6228 11.7335 11.6228 10.1488 11.6228 7.26293C12.5027 7.83182 13.2446 8.17429 13.8484 8.29032C14.4522 8.40631 14.8361 8.45773 15 8.44455V6.07951C14.4415 6.01078 13.9585 5.87974 13.5511 5.68647C12.9399 5.39656 11.7279 4.59191 11.7279 3.41262C11.7287 3.41838 11.7287 3.11418 11.7279 2.5H9.18133C9.17375 8.27629 9.17375 11.4486 9.18133 12.0169C9.19271 12.8693 8.54491 14.0618 7.23145 14.0618C5.91799 14.0618 5.27019 12.8703 5.27019 12.1018C5.27019 11.6313 5.4285 10.9494 6.08288 10.4444C6.47095 10.1449 7.00956 10.0254 7.88347 10.0254C7.88347 9.7494 7.88347 8.98262 7.88347 7.72503Z" fill="black"/>
</svg>
